<svg width="107.000000" height="102.000000" viewBox="0 0 107 102" fill="none" xmlns="http://www.w3.org/2000/svg" xmlns:xlink="http://www.w3.org/1999/xlink">
	<desc>
			Created with Pixso.
	</desc>
	<defs>
		<clipPath id="clip311_20">
			<rect id="icon 24x24" width="48.000000" height="48.000000" transform="translate(30.000000 27.000000)" fill="white" fill-opacity="0"/>
		</clipPath>
		<radialGradient id="paint_radial_311_17_0" cx="0.000000" cy="0.000000" r="1.000000" gradientUnits="userSpaceOnUse" gradientTransform="translate(53 51) rotate(-46.1458) scale(70.7248 53.2019)">
			<stop stop-color="#801AB3" stop-opacity="0.000000"/>
			<stop offset="1.000000" stop-color="#4C4CFF"/>
		</radialGradient>
		<radialGradient id="paint_radial_311_18_0" cx="0.000000" cy="0.000000" r="1.000000" gradientUnits="userSpaceOnUse" gradientTransform="translate(53.5 51) rotate(-43.0632) scale(73.2274 55.0025)">
			<stop stop-color="#801AB3" stop-opacity="0.000000"/>
			<stop offset="1.000000" stop-color="#4C4CFF"/>
		</radialGradient>
		<radialGradient id="paint_radial_311_24_0" cx="0.000000" cy="0.000000" r="1.000000" gradientUnits="userSpaceOnUse" gradientTransform="translate(53 50.6667) rotate(136.146) scale(47.1499 35.4679)">
			<stop stop-color="#801AB3" stop-opacity="0.000000"/>
			<stop offset="1.000000" stop-color="#4C4CFF" stop-opacity="0.501961"/>
		</radialGradient>
	</defs>
	<path id="Vector 3" d="M8.36633 37.3873C2.54456 45.5044 2.54456 56.4957 8.36633 64.6127L28.3336 92.4518C34.1554 100.569 44.4749 103.965 53.8948 100.865L86.2024 90.2313C95.6223 87.1309 102 78.2387 102 68.2055L102 33.7945C102 23.7613 95.6222 14.8691 86.2024 11.7687L53.8948 1.13507C44.4749 -1.96536 34.1554 1.43115 28.3336 9.54819L8.36633 37.3873Z" fill="url(#paint_radial_311_17_0)" fill-opacity="0.250000" fill-rule="evenodd"/>
	<path id="Vector 2" d="M103.944 39.453C108.019 46.5983 108.019 55.4017 103.944 62.547L88.5996 89.453C84.5247 96.5983 76.994 101 68.8442 101L38.1558 101C30.006 101 22.4752 96.5983 18.4004 89.453L3.05615 62.547C-1.01868 55.4017 -1.01868 46.5983 3.05615 39.453L18.4004 12.547C22.4752 5.4017 30.006 1 38.1558 1L68.8442 1C76.994 1 84.5247 5.4017 88.5996 12.547L103.944 39.453Z" fill="url(#paint_radial_311_18_0)" fill-opacity="0.250000" fill-rule="evenodd"/>
	<path id="Vector 1" d="M43.9249 20.9109C49.3362 17.0297 56.6638 17.0297 62.0751 20.9109L80.6345 34.2224C86.0459 38.1036 88.3102 44.9832 86.2433 51.2632L79.1542 72.8016C77.0873 79.0815 71.1592 83.3333 64.4703 83.3333L41.5297 83.3333C34.8408 83.3333 28.9127 79.0815 26.8458 72.8015L19.7567 51.2632C17.6898 44.9832 19.9541 38.1036 25.3655 34.2224L43.9249 20.9109Z" fill="url(#paint_radial_311_24_0)" fill-opacity="0.250000" fill-rule="evenodd"/>
	<g clip-path="url(#clip311_20)">
		<path id="Vector (Stroke)" d="M73.3121 37.5959C74.2 38.4172 74.2327 39.7806 73.3853 40.641L50.0519 64.3333C49.6272 64.7646 49.0371 65.0059 48.422 64.9999C47.8069 64.9939 47.2219 64.741 46.8063 64.3016L34.5841 51.3785C33.7548 50.5016 33.8159 49.1392 34.7206 48.3354C35.6254 47.5316 37.031 47.5908 37.8604 48.4677L48.4773 59.6934L70.1703 37.6667C71.0177 36.8062 72.4244 36.7745 73.3121 37.5959Z" fill="#F2F2F3" fill-opacity="1.000000" fill-rule="evenodd"/>
	</g>
</svg>
